<svg width="18" height="10" viewBox="0 0 18 10" fill="none" xmlns="http://www.w3.org/2000/svg">
<path d="M17.6038 9.6176C17.35 9.86245 17.0059 10 16.6471 10C16.2882 10 15.9441 9.86245 15.6903 9.6176L8.99183 3.15257L2.29334 9.6176C2.03811 9.85551 1.69628 9.98715 1.34147 9.98418C0.986659 9.9812 0.647251 9.84384 0.396351 9.60169C0.145451 9.35953 0.00313508 9.03196 5.18651e-05 8.68951C-0.00303135 8.34706 0.133367 8.01715 0.379869 7.77082L8.0351 0.382398C8.28886 0.137548 8.633 -4.09444e-07 8.99183 -3.9376e-07C9.35066 -3.78075e-07 9.6948 0.137548 9.94856 0.382398L17.6038 7.77082C17.8575 8.01575 18 8.34789 18 8.69421C18 9.04053 17.8575 9.37268 17.6038 9.6176V9.6176Z" fill="white"/>
</svg>
