<svg width="30" height="52" viewBox="0 0 30 52" fill="none" xmlns="http://www.w3.org/2000/svg">
<path d="M1.14719 50.8554C0.412644 50.1223 -3.57022e-06 49.1281 -3.47959e-06 48.0915C-3.38897e-06 47.0549 0.412644 46.0607 1.14719 45.3276L20.5423 25.9764L1.1472 6.62519C0.433465 5.88789 0.0385327 4.90038 0.0474601 3.87536C0.0563875 2.85035 0.46846 1.86984 1.19493 1.14502C1.92139 0.420194 2.90413 0.00905778 3.93147 0.000150765C4.95881 -0.00875625 5.94855 0.385283 6.68753 1.0974L28.8528 23.2125C29.5874 23.9456 30 24.9398 30 25.9764C30 27.013 29.5874 28.0072 28.8528 28.7403L6.68753 50.8554C5.95276 51.5883 4.95633 52 3.91736 52C2.87839 52 1.88196 51.5883 1.14719 50.8554V50.8554Z" fill="white"/>
</svg>
