<svg width="16" height="16" viewBox="0 0 22 20" fill="none" xmlns="http://www.w3.org/2000/svg">
<path d="M7.90398 14.5H14.096C13.476 17.773 12.235 20 11 20C9.80298 20 8.59998 17.906 7.96198 14.796L7.90398 14.502H14.096H7.90398V14.5ZM2.06598 14.501H6.37198C6.73598 16.583 7.35498 18.355 8.16398 19.594C5.62151 18.8394 3.48143 17.1085 2.21198 14.78L2.06598 14.501ZM15.629 14.501H19.934C19.3182 15.7204 18.4598 16.8012 17.4113 17.677C16.3629 18.5528 15.1466 19.2051 13.837 19.594C14.592 18.436 15.181 16.816 15.552 14.913L15.629 14.501H19.934H15.629ZM15.931 8.00095H20.801C21.1386 9.6626 21.0502 11.3827 20.544 13.001H15.84C15.9931 11.5583 16.0366 10.1062 15.97 8.65695L15.93 7.99995H20.8H15.93L15.931 8.00095ZM1.19998 7.99995H6.06998C5.96537 9.47188 5.9764 10.9498 6.10298 12.42L6.15998 13H1.45598C0.949439 11.3818 0.860683 9.66169 1.19798 7.99995H1.19998ZM7.57698 7.99995H14.426C14.5402 9.4733 14.5278 10.9537 14.389 12.425L14.327 13H7.67398C7.4992 11.5026 7.45503 9.99293 7.54198 8.48795L7.57598 7.99995H14.425H7.57498H7.57698ZM13.945 0.575953L13.837 0.405953C15.3233 0.847339 16.6869 1.62738 17.8208 2.68477C18.9547 3.74216 19.828 5.04809 20.372 6.49995H15.782C15.466 4.08395 14.825 2.00795 13.944 0.576953L13.836 0.406953L13.944 0.576953L13.945 0.575953ZM8.04298 0.442953L8.16498 0.405953C7.28298 1.75695 6.62798 3.73595 6.27998 6.05995L6.21798 6.49995H1.62998C2.16647 5.06828 3.02321 3.77823 4.13471 2.72843C5.24621 1.67864 6.58304 0.896887 8.04298 0.442953L8.16498 0.405953L8.04298 0.442953ZM11 0.00195312C12.319 0.00195312 13.646 2.54395 14.214 6.18495L14.261 6.49995H7.73898C8.27998 2.69095 9.64398 0.00195312 11 0.00195312Z" fill="white"/>
</svg>
