<svg width="200" height="54" viewBox="0 0 200 54" fill="none" xmlns="http://www.w3.org/2000/svg">
<path d="M133.069 0V39.1417C137.897 39.3663 142.713 39.6378 147.515 39.9581V48.2569C139.899 47.7491 132.275 47.3637 124.647 47.1011V0H133.069V0ZM200 0.00468749L189.032 25.432L199.997 53.728L199.985 53.7331C196.788 53.2782 193.588 52.8456 190.385 52.435L184.228 36.5538L178.012 50.9608C175.063 50.635 172.112 50.3277 169.159 50.039L179.851 25.2617L170.059 0.00507812H179.171L184.653 14.1394L190.749 0.00468749H200ZM95.7397 46.6898V0.00429687H119.251V8.37772H104.162V19.2293H115.579V27.5281H104.162V46.6882L95.7397 46.6898V46.6898ZM64.2893 8.37811V0.00390624H90.3401V8.37772H81.5256V46.9167C78.7143 46.9909 75.9061 47.0776 73.1038 47.1835V8.37811H64.2893ZM35.4956 49.596V0.00546874H58.8901V8.3785H43.9171V19.7207C47.3569 19.6765 52.248 19.6269 55.2909 19.6339V27.9335C51.4819 27.8867 47.1823 27.9859 43.9171 28.0183V40.5823C48.9044 40.1893 53.8957 39.8482 58.8901 39.5589V47.8585C51.0829 48.3089 43.2837 48.8884 35.4956 49.5968V49.596ZM18.9734 30.4117L18.973 0.00390624H27.3957V50.3788C24.3168 50.6952 21.2433 51.0323 18.1757 51.3882L8.42225 23.3687V52.5882C5.61259 52.9538 2.80513 53.3361 0 53.735V0.00468749H8.00428L18.973 30.4117H18.9734ZM154.463 48.7573V0.00468749H162.886V49.453C160.082 49.203 157.275 48.9726 154.463 48.7577V48.7573Z" fill="#ff0011"/>
</svg>
