<svg width="192" height="192" viewBox="0 0 192 192" fill="none" xmlns="http://www.w3.org/2000/svg">
<g clip-path="url(#clip0_101_13)">
<path d="M111.136 0.127203L111.062 42.5581L110.987 84.9889L107.506 75.1391L107.5 75.1203L103.002 169.583C107.425 182.108 109.793 188.795 109.82 188.821C109.854 188.857 112.375 189.009 115.42 189.161C124.647 189.62 136.081 190.603 144.755 191.685C146.764 191.935 148.492 192.063 148.597 191.969C148.7 191.876 148.757 148.673 148.722 95.9636L148.658 0.127203H111.136ZM43.2676 0V95.9337C43.2676 148.698 43.3194 191.919 43.3823 191.982C43.4452 192.045 46.703 191.737 50.6226 191.297C54.5411 190.856 59.9584 190.309 62.6593 190.08C66.8016 189.729 79.1691 188.932 80.6007 188.923C81.0175 188.921 81.044 186.766 81.1047 148.291L81.1686 107.659L84.1607 116.151L85.2195 119.152L89.7158 24.7123L88.1707 20.3322C85.8629 13.7857 83.5531 7.23981 81.2414 0.694625L80.9933 0H43.2676Z" fill="#B1060F"/>
<path d="M43.2676 0V53.8502L81.0914 154.478C81.0959 152.172 81.1003 150.926 81.1047 148.291L81.1686 107.659L84.1607 116.151C100.818 163.423 109.767 188.768 109.82 188.821C109.854 188.857 112.375 189.009 115.42 189.161C124.647 189.62 136.081 190.603 144.755 191.685C146.764 191.935 148.492 192.063 148.597 191.969C148.667 191.905 148.715 170.721 148.727 140.838L111.079 32.2858L111.062 42.5581L110.987 84.9889L107.506 75.1391C104.105 65.515 101.834 59.0787 88.1707 20.3322C85.8629 13.7857 83.5531 7.23981 81.2414 0.694625L80.9933 0H43.2676Z" fill="url(#paint0_radial_101_13)"/>
<path d="M43.2676 0L81.1686 107.708L81.1686 107.659L84.1607 116.151C100.818 163.423 109.767 188.768 109.82 188.821C109.854 188.857 112.375 189.009 115.42 189.161C124.647 189.62 136.081 190.603 144.755 191.685C146.754 191.934 148.472 192.061 148.593 191.97L110.986 84.9701L110.987 84.9889L107.506 75.1391C104.105 65.515 101.834 59.0787 88.1707 20.3322C84.496 9.91281 81.3782 1.07733 81.2414 0.694625L80.9933 0H43.2676Z" fill="#E50914"/>
<path d="M111.136 0.127203L111.062 42.5581L110.987 84.9889L107.506 75.1391L107.5 75.1203L103.002 169.583C107.425 182.108 109.793 188.795 109.82 188.821C109.854 188.857 112.375 189.009 115.42 189.161C124.647 189.62 136.081 190.603 144.755 191.685C146.764 191.935 148.492 192.063 148.597 191.969C148.7 191.876 148.757 148.673 148.722 95.9636L148.658 0.127203H111.136ZM43.2676 0V95.9337C43.2676 148.698 43.3194 191.919 43.3823 191.982C43.4452 192.045 46.703 191.737 50.6226 191.297C54.5411 190.856 59.9584 190.309 62.6593 190.08C66.8016 189.729 79.1691 188.932 80.6007 188.923C81.0175 188.921 81.044 186.766 81.1047 148.291L81.1686 107.659L84.1607 116.151L85.2195 119.152L89.7158 24.7123L88.1707 20.3322C85.8629 13.7857 83.5531 7.23981 81.2414 0.694625L80.9933 0H43.2676Z" fill="#B1060F"/>
<path d="M43.2676 0V53.8502L81.0914 154.478C81.0959 152.172 81.1003 150.926 81.1047 148.291L81.1686 107.659L84.1607 116.151C100.818 163.423 109.767 188.768 109.82 188.821C109.854 188.857 112.375 189.009 115.42 189.161C124.647 189.62 136.081 190.603 144.755 191.685C146.764 191.935 148.492 192.063 148.597 191.969C148.667 191.905 148.715 170.721 148.727 140.838L111.079 32.2858L111.062 42.5581L110.987 84.9889L107.506 75.1391C104.105 65.515 101.834 59.0787 88.1707 20.3322C85.8629 13.7857 83.5531 7.23981 81.2414 0.694625L80.9933 0H43.2676Z" fill="url(#paint1_radial_101_13)"/>
<path d="M43.2676 0L81.1686 107.708L81.1686 107.659L84.1607 116.151C100.818 163.423 109.767 188.768 109.82 188.821C109.854 188.857 112.375 189.009 115.42 189.161C124.647 189.62 136.081 190.603 144.755 191.685C146.754 191.934 148.472 192.061 148.593 191.97L110.986 84.9701L110.987 84.9889L107.506 75.1391C104.105 65.515 101.834 59.0787 88.1707 20.3322C84.496 9.91281 81.3782 1.07733 81.2414 0.694625L80.9933 0H43.2676Z" fill="#E50914"/>
</g>
<defs>
<radialGradient id="paint0_radial_101_13" cx="0" cy="0" r="1" gradientUnits="userSpaceOnUse" gradientTransform="translate(94.2493 32.0685) scale(74.2873 74.5015)">
<stop/>
<stop offset="1" stop-opacity="0"/>
</radialGradient>
<radialGradient id="paint1_radial_101_13" cx="0" cy="0" r="1" gradientUnits="userSpaceOnUse" gradientTransform="translate(94.2493 32.0685) scale(74.2873 74.5015)">
<stop/>
<stop offset="1" stop-opacity="0"/>
</radialGradient>
<clipPath id="clip0_101_13">
<rect width="192" height="192" fill="white"/>
</clipPath>
</defs>
</svg>
